<?xml version="1.0" encoding="UTF-8"?>
<!DOCTYPE svg PUBLIC "-//W3C//DTD SVG 1.1//EN" "http://www.w3.org/Graphics/SVG/1.1/DTD/svg11.dtd">
<!-- Creator: CorelDRAW 2017 -->
<svg xmlns="http://www.w3.org/2000/svg" xml:space="preserve" width="210mm" height="297mm" version="1.1" style="shape-rendering:geometricPrecision; text-rendering:geometricPrecision; image-rendering:optimizeQuality; fill-rule:evenodd; clip-rule:evenodd"
viewBox="0 0 21000 29700"
 xmlns:xlink="http://www.w3.org/1999/xlink">
 <defs>
  <style type="text/css">
   <![CDATA[
    .fil15 {fill:#022A3B}
    .fil16 {fill:#044561}
    .fil11 {fill:#305E94}
    .fil17 {fill:#325B8A}
    .fil26 {fill:#396496}
    .fil4 {fill:#4872A3}
    .fil6 {fill:#5F89BA}
    .fil24 {fill:#6E1010}
    .fil8 {fill:#82A8D4}
    .fil20 {fill:#8C2424}
    .fil9 {fill:#9DC0E8}
    .fil12 {fill:#9FC3ED}
    .fil5 {fill:#B9D6F7}
    .fil0 {fill:#CCE4FF}
    .fil23 {fill:#D92B2B}
    .fil7 {fill:#D9EBFF}
    .fil1 {fill:#DBECFF}
    .fil25 {fill:#DE3838}
    .fil18 {fill:#DE3C3C}
    .fil2 {fill:#F0F7FF}
    .fil22 {fill:#F25757}
    .fil19 {fill:#F7DCDC}
    .fil21 {fill:white}
    .fil3 {fill:white}
    .fil13 {fill:#313033;fill-rule:nonzero}
    .fil14 {fill:#325B8A;fill-rule:nonzero}
    .fil10 {fill:white;fill-rule:nonzero}
   ]]>
  </style>
 </defs>
 <g id="Слой_x0020_1">
  <metadata id="CorelCorpID_0Corel-Layer"/>
  <polygon class="fil0" points="1005.75,3816.71 17738.82,3816.71 17738.82,16366.51 1005.75,16366.51 "/>
  <g id="_3019218594672">
   <path class="fil1" d="M2400.74 14705.18c-290.25,-744.29 -448.76,-1548.07 -448.76,-2386.61 0,-3839.63 3320.17,-6952.27 7415.8,-6952.27 4095.63,0 7415.8,3112.64 7415.8,6952.27 0,838.54 -158.51,1642.32 -448.77,2386.61l-13934.07 0z"/>
   <path class="fil2" d="M2796.97 10591.36c53.95,0 97.69,43.74 97.69,97.7 0,53.95 -43.74,97.69 -97.69,97.69 -53.95,0 -97.69,-43.74 -97.69,-97.69 0,-53.96 43.74,-97.7 97.69,-97.7zm8741.44 2316.8c241.52,0 437.3,195.78 437.3,437.3 0,241.52 -195.78,437.3 -437.3,437.3 -241.51,0 -437.3,-195.78 -437.3,-437.3 0,-241.52 195.79,-437.3 437.3,-437.3zm588.27 -2184.73c330.03,0 597.57,267.54 597.57,597.57 0,330.03 -267.54,597.57 -597.57,597.57 -330.03,0 -597.57,-267.54 -597.57,-597.57 0,-330.03 267.54,-597.57 597.57,-597.57zm1832.48 -2690.74c98.52,0 178.4,79.87 178.4,178.4 0,98.52 -79.88,178.4 -178.4,178.4 -98.53,0 -178.4,-79.88 -178.4,-178.4 0,-98.53 79.87,-178.4 178.4,-178.4zm-5373.63 3201.96c306.43,0 554.84,248.41 554.84,554.84 0,306.43 -248.41,554.85 -554.84,554.85 -306.43,0 -554.85,-248.42 -554.85,-554.85 0,-306.43 248.42,-554.84 554.85,-554.84zm-376.45 2191.32c98.52,0 178.4,79.87 178.4,178.39 0,98.53 -79.88,178.4 -178.4,178.4 -98.53,0 -178.4,-79.87 -178.4,-178.4 0,-98.52 79.87,-178.39 178.4,-178.39zm-2368.52 -4788.94c332.02,0 601.19,269.16 601.19,601.19 0,332.02 -269.17,601.19 -601.19,601.19 -332.03,0 -601.19,-269.17 -601.19,-601.19 0,-332.03 269.16,-601.19 601.19,-601.19z"/>
   <g>
    <rect class="fil3" x="5599.51" y="5667.2" width="7568.97" height="5581.86" rx="290.86" ry="290.86"/>
    <path class="fil4" d="M5890.37 5667.2l6987.24 0c159.98,0 290.86,130.87 290.86,290.86l0 339.89 -7568.96 0 0 -339.89c0,-159.99 130.87,-290.86 290.86,-290.86z"/>
    <g>
     <path class="fil5" d="M10965.68 7715.06l0 1189.74c0,1054.45 -3163.39,1054.46 -3163.39,0l0 -1189.74 3163.39 0z"/>
     <rect class="fil0" transform="matrix(0.716006 -0.169701 0.716006 0.169701 6307.42 7715.06)" width="4296.84" height="4296.84"/>
    </g>
    <rect class="fil5" x="7936.12" y="6476.62" width="2895.74" height="330.59"/>
    <rect class="fil5" x="6307.42" y="9852.68" width="6153.14" height="165.3"/>
    <g>
     <path class="fil5" d="M6307.42 10198.6c2051.05,0 4102.1,0 6153.14,0 0,55.1 0,110.2 0,165.3 -2051.04,0 -4102.09,0 -6153.14,0 0,-55.1 0,-110.2 0,-165.3z"/>
     <path class="fil5" d="M6307.42 10544.53c2051.05,0 4102.1,0 6153.14,0 0,55.1 0,110.2 0,165.29 -2051.04,0 -4102.09,0 -6153.14,0 0,-55.09 0,-110.19 0,-165.29z"/>
    </g>
    <rect class="fil5" x="6307.42" y="10890.44" width="6153.14" height="165.3"/>
    <rect class="fil6" x="12389.38" y="5885.26" width="484.21" height="194.63"/>
    <g>
     <path class="fil6" d="M11715.29 5885.26c161.4,0 322.81,0 484.21,0 0,64.88 0,129.76 0,194.63 -161.4,0 -322.81,0 -484.21,0 0,-64.87 0,-129.75 0,-194.63z"/>
    </g>
    <rect class="fil6" x="11041.2" y="5885.26" width="484.21" height="194.63"/>
   </g>
   <ellipse class="fil4" cx="9235.9" cy="14705.18" rx="7547.68" ry="111.74"/>
   <g>
    <polygon class="fil7" points="5306.89,12833.22 5306.89,13637.69 1741.6,13637.69 1510.82,13251.16 1776.2,12847.33 "/>
    <path class="fil8" d="M5476.9 13733.1l-3559.04 0c-267.1,0 -486.04,-218.93 -486.04,-486.04 0,-267.1 218.94,-486.04 486.04,-486.04l3559.04 0 0 163.54 -3559.04 0c-177.57,0 -322.5,144.93 -322.5,322.5 0,177.58 144.93,322.51 322.5,322.51l3559.04 0 0 163.53z"/>
    <path class="fil9" d="M6818.54 12761.02l-1341.64 0 0 163.54 1341.64 0 0 -163.54zm0 808.55l-1341.64 0 0 163.53 1341.64 0 0 -163.53z"/>
    <polygon class="fil10" points="5306.89,12924.55 6668.6,12924.55 6668.6,13569.58 5306.89,13569.58 "/>
    <polygon class="fil7" points="5306.89,12924.56 6668.59,12924.56 6668.59,13023.61 5306.89,13023.61 "/>
    <path class="fil5" d="M5306.89 12924.56l0 99.05 -3352.68 0c-177.57,0 -322.51,144.94 -322.51,322.51 0,20.34 1.92,40.25 5.56,59.57 -26.66,-46.88 -41.9,-101.04 -41.9,-158.63 0,-177.57 144.93,-322.5 322.5,-322.5l3389.03 0z"/>
    <polygon class="fil7" points="5983.59,13805.3 5983.59,14609.77 2418.3,14609.77 2187.52,14223.24 2452.9,13819.41 "/>
    <path class="fil4" d="M6153.6 14705.18l-3559.04 0c-267.1,0 -486.04,-218.93 -486.04,-486.04 0,-267.1 218.94,-486.04 486.04,-486.04l3559.04 0 0 163.54 -3559.04 0c-177.57,0 -322.51,144.93 -322.51,322.5 0,177.58 144.94,322.51 322.51,322.51l3559.04 0 0 163.53z"/>
    <path class="fil8" d="M7495.24 13733.1l-1341.64 0 0 163.54 1341.64 0 0 -163.54zm0 808.55l-1341.64 0 0 163.53 1341.64 0 0 -163.53z"/>
    <polygon class="fil10" points="5983.6,13896.63 7345.28,13896.63 7345.28,14541.66 5983.6,14541.66 "/>
    <polygon class="fil7" points="5983.59,13896.64 7345.29,13896.64 7345.29,13995.69 5983.59,13995.69 "/>
    <path class="fil5" d="M5983.59 13896.64l0 99.05 -3352.68 0c-177.57,0 -322.51,144.94 -322.51,322.51 0,20.34 1.92,40.25 5.56,59.57 -26.66,-46.88 -41.91,-101.04 -41.91,-158.63 0,-177.57 144.94,-322.5 322.51,-322.5l3389.03 0z"/>
    <path class="fil4" d="M3464.84 12761.02l3559.03 0c267.1,0 486.04,-218.93 486.04,-486.04 0,-267.1 -218.94,-486.04 -486.04,-486.04l-3559.03 0 0 972.08z"/>
    <polygon class="fil5" points="2019.49,11861.14 2019.49,12665.61 5584.79,12665.61 5815.56,12279.08 5550.18,11875.24 "/>
    <path class="fil11" d="M1845.06 12761.02l3559.03 0c133.53,0 254.98,-54.68 343.03,-142.71l0.3 -0.3c88.03,-88.05 142.71,-209.5 142.71,-343.03 0,-133.53 -54.68,-254.98 -142.71,-343.02l-0.3 -0.31c-88.05,-88.02 -209.5,-142.71 -343.03,-142.71l-3559.03 0 0 163.54 3559.03 0c88.73,0 169.42,36.26 227.88,94.63 58.37,58.45 94.63,139.15 94.63,227.87 0,88.72 -36.26,169.42 -94.63,227.88 -58.46,58.37 -139.15,94.63 -227.88,94.63l-3559.03 0 0 163.53z"/>
    <path class="fil12" d="M2015.07 11952.48l0 99.05 3352.68 0c177.57,0 322.5,144.94 322.5,322.51 0,20.34 -1.92,40.25 -5.56,59.57 26.67,-46.88 41.91,-101.04 41.91,-158.63 0,-177.57 -144.93,-322.5 -322.51,-322.5l-3389.02 0z"/>
   </g>
   <g>
    <path class="fil13" d="M13801.59 11764.66c-60,0 -108.64,-48.64 -108.64,-108.64 0,-60 48.64,-108.64 108.64,-108.64l781.84 0c42.08,0 82.1,9.34 118.74,27.4 36.24,17.88 67.99,44.05 93.93,77.85 25.96,33.84 42.98,71.09 50.82,110.42l0.93 5.29c6.78,37.85 4.97,77.11 -5.55,116.45l-77.5 289.23c-39.04,145.68 -122.76,267.81 -234.71,353.71 -111.82,85.79 -251.29,135 -401.94,135l-196.99 0 -42.12 164.34c-14.76,57.88 -73.67,92.83 -131.56,78.07 -57.88,-14.76 -92.83,-73.67 -78.07,-131.55l60.6 -236.43c8.13,-51.96 53.09,-91.71 107.33,-91.71l280.81 0c102.05,0 195.83,-32.81 270.39,-90.01 74.41,-57.09 130.26,-139.05 156.63,-237.45l77.5 -289.23c2.01,-7.55 2.54,-14.78 1.59,-21.44l-0.39 -1.83c-1.45,-7.3 -4.84,-14.5 -10.06,-21.3 -5.22,-6.83 -11.18,-11.9 -17.57,-15.04 -5.98,-2.94 -13.68,-4.49 -22.81,-4.49l-781.84 0z"/>
    <polygon class="fil14" points="15580.03,11494.55 15367.17,12368.39 15788.14,12470.25 16001.01,11596.41 "/>
    <path class="fil15" d="M15876.65 9808.85c-444.01,-43.64 -961.05,660.44 -1098.99,1309.75 -137.94,649.3 155.44,997.94 599.46,1041.58 444.01,43.64 870.5,-234.24 1008.44,-883.55 137.94,-649.3 -64.9,-1424.14 -508.91,-1467.78z"/>
    <path class="fil15" d="M15800.4 9732.51c-444.01,-43.64 -961.05,660.44 -1098.99,1309.75 -137.94,649.3 155.45,997.94 599.46,1041.58 444.01,43.64 870.5,-234.24 1008.44,-883.55 137.95,-649.3 -64.9,-1424.14 -508.91,-1467.78z"/>
    <circle class="fil15" transform="matrix(1.44855 -0 0.28787 1.44855 15129.4 14573.9)" r="97.89"/>
    <circle class="fil15" transform="matrix(1.44855 -0 0.28787 1.44855 15236.7 14573.9)" r="97.89"/>
    <polygon class="fil15" points="14864.11,14374.59 14928.59,14101.51 15378.7,14420.54 15378.7,14573.88 "/>
    <polygon class="fil15" points="15034.68,14101.51 16225.33,14420.54 16225.33,14573.88 14864.11,14374.59 13502.92,14573.88 13502.92,14420.54 14693.56,14101.51 14864.11,13937.68 14864.11,13937.67 14864.13,13937.67 14864.13,13937.68 "/>
    <polygon class="fil15" points="15559.76,12554.09 14168.5,12554.09 14168.5,12837.73 15559.76,12837.73 "/>
    <polygon class="fil15" points="15151.27,12761.04 14577,12761.04 14577,12914.39 15151.27,12914.39 "/>
    <polygon class="fil15" points="15034.68,12852.1 14693.57,12852.1 14693.57,13067.73 15034.68,13067.73 "/>
    <polygon class="fil3" points="14752.03,13067.73 14976.23,13067.73 14976.23,13577.43 14752.03,13577.43 "/>
    <path class="fil4" d="M15102.7 12347.12l-1517.71 0c-113.84,0 -228.23,93.13 -254.21,206.96 -25.99,113.83 45.88,206.96 159.71,206.96l1416.89 0 195.32 -413.92z"/>
    <path class="fil14" d="M14750.1 12347.12c-113.84,0 -228.23,93.14 -254.22,206.97 -25.97,113.83 45.89,206.95 159.72,206.95 570.63,0 639.16,0 1209.78,0 113.83,0 228.23,-93.12 254.22,-206.95 25.99,-113.84 -45.88,-206.97 -159.72,-206.97 -570.62,0 -639.16,0 -1209.78,0z"/>
    <polygon class="fil15" points="14693.56,13550.59 15034.68,13550.59 15034.68,14101.51 14693.56,14101.51 "/>
    <path class="fil5" d="M14752.03 13169.24c16.28,-52.07 206.01,-13.11 224.2,128.39l0 -229.9 -224.2 0 0 101.51z"/>
    <polygon class="fil16" points="14864.11,14374.59 15034.68,14101.51 16225.33,14420.54 16225.33,14573.88 "/>
    <circle class="fil15" transform="matrix(1.44855 -0 0.28787 1.44855 13644.7 14573.9)" r="97.89"/>
    <circle class="fil15" transform="matrix(1.44855 -0 0.28787 1.44855 13752 14573.9)" r="97.89"/>
    <circle class="fil16" transform="matrix(1.44855 -0 0.28787 1.44855 15976.2 14573.9)" r="97.89"/>
    <circle class="fil16" transform="matrix(1.44855 -0 0.28787 1.44855 16083.5 14573.9)" r="97.89"/>
    <circle class="fil15" transform="matrix(1.44855 -0 0.28787 1.44855 14491.4 14573.9)" r="97.89"/>
    <circle class="fil15" transform="matrix(1.44855 -0 0.28787 1.44855 14598.7 14573.9)" r="97.89"/>
    <polygon class="fil15" points="14864.17,14374.59 14799.69,14101.51 14349.59,14420.54 14349.59,14573.88 "/>
    <path class="fil17" d="M15737.98 9795.22c-418.54,-41.13 -905.92,622.56 -1035.95,1234.62 -130.03,612.06 146.53,940.7 565.07,981.83 418.54,41.14 820.57,-220.8 950.6,-832.86 130.03,-612.06 -61.18,-1342.45 -479.72,-1383.59z"/>
    <path class="fil4" d="M15639.34 9868.55c-377.15,-37.07 -816.32,560.98 -933.49,1112.51 -117.17,551.52 132.03,847.65 509.18,884.72 377.15,37.07 739.41,-198.97 856.58,-750.49 117.17,-551.53 -55.13,-1209.68 -432.27,-1246.74z"/>
    <path class="fil10" d="M15410.36 11764.66c-60,0 -108.64,-48.64 -108.64,-108.64 0,-60 48.64,-108.64 108.64,-108.64l781.84 0c42.08,0 82.1,9.34 118.74,27.4 36.24,17.88 67.99,44.05 93.94,77.85 25.95,33.84 42.97,71.09 50.81,110.42l0.93 5.29c6.78,37.85 4.97,77.11 -5.55,116.45l-77.5 289.23c-39.04,145.68 -122.76,267.81 -234.71,353.71 -111.82,85.79 -251.29,135 -401.94,135l-196.99 0 -42.12 164.34c-14.76,57.88 -73.67,92.83 -131.56,78.07 -57.88,-14.76 -92.83,-73.67 -78.07,-131.55l60.6 -236.43c8.13,-51.96 53.09,-91.71 107.33,-91.71l280.81 0c102.05,0 195.83,-32.81 270.39,-90.01 74.41,-57.09 130.26,-139.05 156.63,-237.45l77.5 -289.23c2.01,-7.55 2.54,-14.78 1.59,-21.44l-0.39 -1.83c-1.45,-7.3 -4.84,-14.5 -10.06,-21.3 -5.22,-6.83 -11.18,-11.9 -17.57,-15.04 -5.98,-2.94 -13.68,-4.49 -22.81,-4.49l-781.84 0z"/>
    <path class="fil15" d="M14936.16 12957.2c-17.25,-9.99 -23.14,-32.11 -13.15,-49.36 10,-17.25 32.12,-23.15 49.37,-13.15l349.47 201.76 264.8 0c19.99,0 36.21,16.23 36.21,36.22 0,19.99 -16.22,36.21 -36.21,36.21l-274.33 0c-6.15,-0.07 -12.4,-1.65 -18.1,-4.95l-358.06 -206.73z"/>
    <g>
     <polygon class="fil18" points="13922.7,10625.77 13797.83,11228.96 14022.58,11269.14 14211.72,10663.78 "/>
     <path class="fil19" d="M13978.35 10290.39l-90.97 364.69 310.63 107.2 299.83 -597.62 -218.25 -132.9 -132.95 -19.84c-83.18,72.46 -140.48,166.91 -168.29,278.47z"/>
     <path class="fil20" d="M15379.34 12320.13l-4.29 59.14 -1612.84 -0.6 -328.58 -93.35 -38.86 535.9c-7.4,102.13 -39.5,187.91 -100.97,269.8l-605.13 806.3 -202.14 -99.44 529.99 -1805.6c22.62,-77.09 60.14,-137.88 118.9,-192.67l114.81 -107.04 1982.95 -189.45 69.59 353.36 28.18 83.5c43.27,128.15 58.18,245.24 48.39,380.15z"/>
     <path class="fil3" d="M13965.15 11571.15l144.66 -510.56 -43.49 -306.63c-61.18,-31.52 -99.96,-91.7 -94.98,-160.39l0 0c1.67,-23.09 8.16,-45.23 18.53,-65.64l-0.01 0 66.88 -133.57 89.9 -382.44 456.32 -187.47 640.77 198.11 -14.92 138.2c-98.2,155.32 -120.62,417.24 -180.52,498.75 -139.21,189.43 -118.98,435.15 17.67,610.46l201.5 258.54 36.01 318.28 -68.48 -162.59 -40.76 195.45c-270.33,-93.18 -560.28,-84.96 -865.09,0l-180.62 -218.14 -199.8 -24.14 16.43 -66.22z"/>
     <path class="fil19" d="M14099.17 10985.55l-32.85 -231.59c-61.18,-31.52 -99.96,-91.7 -94.98,-160.39l0 0c1.84,-25.36 9.48,-49.56 21.69,-71.59 70.81,55.5 172.06,59.39 254.77,8.88 32.23,-19.69 71.61,-19.69 100.99,0 140.07,93.86 338.03,50.44 442.3,-97l131.61 -186.09 197.14 206.43c-23.42,88.47 -43.33,166.92 -71.55,205.31 -139.21,189.43 -118.98,435.16 17.67,610.46l106.9 137.16c-207.62,-170.67 -441.78,-219.33 -706.3,-206.22l23.66 -88.94c-21.4,-90.01 -33.11,-114.9 -118.04,-149.22 -84.93,-34.33 -183.68,-26.88 -268.41,20.24l-4.6 2.56z"/>
     <polygon class="fil3" points="14976.02,9964.22 14888.73,9718.71 14411.76,9718.71 14328.93,9969 "/>
     <path class="fil15" d="M14819.79 8764.82c-170.3,0 -318.37,138.05 -330.72,308.34 -12.35,170.3 115.7,308.35 285.99,308.35 170.29,0 318.36,-138.05 330.71,-308.35 12.35,-170.29 -115.69,-308.34 -285.98,-308.34z"/>
     <path class="fil21" d="M14769.66 8884.61c-78.08,0 -145.97,63.3 -151.64,141.39 -5.66,78.09 53.05,141.39 131.14,141.39 78.08,0 145.97,-63.3 151.64,-141.39 5.66,-78.09 -53.05,-141.39 -131.14,-141.39z"/>
     <path class="fil15" d="M14543.51 8823.82c-205.42,0 -384.04,166.53 -398.93,371.95 -14.9,205.42 139.55,371.96 344.97,371.96 205.42,0 384.04,-166.54 398.93,-371.96 14.9,-205.42 -139.55,-371.95 -344.97,-371.95z"/>
     <polygon class="fil22" points="14727.56,9500.45 14790.14,9733.56 14540.54,9775.32 14492.81,9950.49 14430.43,9528.75 "/>
     <path class="fil23" d="M14607.03 9764.2l-66.49 11.12 -22.82 83.74c-11.45,8.58 -23.16,16.15 -35.09,22.65l-52.2 -352.96 284.75 -27.11c-20.97,101.86 -59.25,192.65 -108.15,262.56z"/>
     <path class="fil22" d="M14201.49 9077.11c-17.1,55.83 -28.89,116.27 -34.02,179.38 -22.96,282.83 96.48,512.09 266.75,512.09 170.28,0 326.92,-229.26 349.86,-512.09 4.29,-52.82 3.61,-103.77 -1.44,-151.71l-292.02 -52.86 -289.13 25.19z"/>
     <path class="fil15" d="M14734.79 9480.84l-58.19 -56.76c-188.47,-12.26 -300.4,-85.06 -378.53,-256.69 -39.21,111.1 -83.6,170.6 -133.21,177.53l-13.36 -125.89 57.12 -193.03 447.28 -23.9 180.84 88.93 -14.75 203.46 -87.2 186.35z"/>
     <path class="fil22" d="M14680.15 9327.19c-40.97,0 -77.63,47.35 -81.86,105.75 -4.24,58.4 25.55,105.75 66.52,105.75 40.98,0 77.64,-47.35 81.87,-105.75 4.24,-58.4 -25.55,-105.75 -66.53,-105.75z"/>
     <path class="fil3" d="M14476.89 9642.13l-199.79 0c51.54,59.53 141.35,72.28 199.79,0z"/>
     <polygon class="fil20" points="14616.28,10032.51 14603.05,9959.43 14500.64,9979.15 14416.76,9950.49 14385.89,10026.65 14418.13,10001.19 14439.66,10075.76 14187.44,10673.83 14171.94,10887.64 14273.76,11086.21 14411.85,10900.53 14425.14,10670.84 14491.69,10078.38 14548.27,10002.32 "/>
     <polygon class="fil22" points="15168.01,10715.14 15004.14,11153.38 14772.95,11029.83 14887.39,10663.78 "/>
     <path class="fil18" d="M15147.29 10770.58l-104.09 278.37c-9.87,-46.59 -35.59,-88.11 -74.09,-117.03 -43.53,-32.68 -98.74,-45.74 -153.72,-37.86l59.32 -189.71 272.58 66.23z"/>
     <path class="fil22" d="M15004.14 11153.38c-254.79,251.79 -481.12,381.67 -854.38,452.14l-69.59 -58.1 717.66 -553.61 206.31 159.57z"/>
     <path class="fil3" d="M15300.44 10516.88l-145.04 350.5 -326.24 -59.88 110.94 -647.19 303.63 -137.76 29.35 48.58c81.81,135.35 91.36,291.06 27.36,445.75z"/>
     <path class="fil15" d="M13111.11 11683.46l1435.1 0c15.56,0 27.34,12.7 26.21,28.26l0 0.01c-1.13,15.55 -14.76,28.26 -30.3,28.26l-1435.11 0c-15.54,0 -27.34,-12.71 -26.21,-28.26l0 -0.01c1.13,-15.56 14.76,-28.26 30.31,-28.26z"/>
     <path class="fil3" d="M13565.29 13799.44l57.44 33.16c131.2,80.91 69.35,319.53 50.92,602.08 -4.84,74.23 -16.2,183.54 -70.32,229.61 -105.35,89.71 -381.34,42.29 -299.47,-291.06 24.5,-99.75 55.21,-197.6 91.9,-292.88 27.54,-71.54 48.84,-145.69 63.6,-221.5l105.93 -59.41z"/>
     <path class="fil15" d="M12879.94 10834.38l1115.81 0c18.72,0 36.95,15.3 40.56,34.01l154.32 801.5c3.61,18.71 -8.74,34.01 -27.46,34.01l-1115.82 0c-18.7,0 -36.95,-15.3 -40.56,-34.01l-154.32 -801.5c-3.6,-18.71 8.75,-34.01 27.47,-34.01z"/>
     <ellipse class="fil16" transform="matrix(0.989055 -0 -0.0717324 0.989055 13521.6 11269.1)" rx="193.27" ry="116.41"/>
     <path class="fil24" d="M13857.45 12378.61l80.29 269.48c38.7,129.9 40.01,252.48 4.08,383.3l-270.96 986.9 -230.08 -16.99 -143.65 -1213.69c-12.55,-106.1 -14.08,-197.87 -5.02,-304.39l20.19 -237.78c6.99,-82.26 41.87,-150.21 102.79,-200.2l23.16 -19c60.04,-49.28 140.23,-49.26 200.24,0.06l73.91 60.74c17.74,14.58 33.39,30.22 47.13,47.15l0 0 270.37 244.5 -172.45 -0.08z"/>
     <path class="fil3" d="M12688.67 13897.32l57.84 67.79c19.56,25.58 27.07,58.39 20.59,89.94 -6.48,31.55 -26.32,58.73 -54.38,74.54 -73.5,41.38 -212.29,111.96 -316.54,199.26 -79.68,66.73 -189.51,84.8 -289.26,55.67 -25.93,-7.58 -46.31,-27.76 -54.13,-53.61 -7.81,-25.87 -2.04,-53.95 15.35,-74.62 59.5,-70.73 62.2,-66.64 131.88,-127.36l488.65 -231.61z"/>
     <path class="fil22" d="M13440.78 14001.3l-31.12 281.37c2.8,130.89 123.76,101.99 162.02,0l99.18 -264.38c5.34,-45.88 -13.27,-91.19 -48.35,-117.71 -35.09,-26.52 -80.88,-29.89 -118.99,-8.78 -38.09,21.11 -57.68,63.63 -62.74,109.5z"/>
     <path class="fil22" d="M12486.53 13797.88l-286.51 331.05c66.3,28.21 201.31,30.26 301.99,-42.77 84.75,-61.48 136.79,-199.35 186.66,-188.84l-49.51 -65.96c-35.58,-47.39 -116.39,-75.35 -152.63,-33.48z"/>
    </g>
   </g>
   <g>
    <path class="fil0" d="M4402.45 9877.74l83.23 333.69 -284.22 98.09 -274.34 -546.83 199.69 -121.59 121.65 -18.16c76.11,66.3 128.53,152.73 153.99,254.8z"/>
    <path class="fil16" d="M3120.55 11734.93l3.93 54.11 1475.72 -0.55 300.66 -85.41 35.55 490.34c6.77,93.45 36.15,171.93 92.38,246.86l553.69 737.75 184.96 -90.98 -484.94 -1652.1c-20.69,-70.54 -55.03,-126.16 -108.79,-176.29l-105.05 -97.94 -1814.37 -173.35 -63.67 323.32 -25.79 76.4c-39.59,117.26 -53.23,224.4 -44.28,347.84z"/>
    <path class="fil3" d="M4414.52 11049.62l-132.36 -467.16 39.79 -280.56c55.98,-28.84 91.47,-83.9 86.91,-146.75l0 0c-1.54,-21.13 -7.47,-41.39 -16.96,-60.06l0.01 0 -61.2 -122.21 -82.25 -349.94 -417.53 -171.53 -586.29 181.27 13.65 126.45c89.85,142.12 110.36,381.77 165.17,456.35 127.38,173.32 108.86,398.16 -16.16,558.57l-184.38 236.55 -32.95 291.23 62.66 -148.77 37.3 178.84c247.34,-85.26 512.65,-77.74 791.54,0l165.27 -199.6 182.81 -22.09 -15.03 -60.59z"/>
    <path class="fil0" d="M4291.89 10513.8l30.06 -211.9c55.98,-28.84 91.47,-83.9 86.91,-146.75l0 0c-1.69,-23.21 -8.68,-45.35 -19.85,-65.51 -64.79,50.79 -157.43,54.34 -233.11,8.13 -29.5,-18.02 -65.52,-18.02 -92.41,0 -128.16,85.87 -309.29,46.15 -404.69,-88.76l-120.42 -170.27 -180.39 188.89c21.43,80.94 39.65,152.72 65.47,187.85 127.38,173.32 108.86,398.16 -16.16,558.57l-97.82 125.49c189.97,-156.16 404.23,-200.68 646.25,-188.69l-21.65 -81.37c19.59,-82.37 30.3,-105.13 108.01,-136.54 77.71,-31.41 168.07,-24.59 245.6,18.52l4.2 2.34z"/>
    <polygon class="fil3" points="3489.58,9579.3 3569.45,9354.66 4005.88,9354.66 4081.66,9583.67 "/>
    <path class="fil15" d="M3632.54 8481.86c155.81,0 291.3,126.32 302.6,282.13 11.3,155.82 -105.86,282.14 -261.68,282.14 -155.81,0 -291.29,-126.32 -302.59,-282.14 -11.31,-155.81 105.85,-282.13 261.67,-282.13z"/>
    <path class="fil21" d="M3678.4 8591.47c71.45,0 133.57,57.92 138.75,129.37 5.18,71.45 -48.54,129.37 -119.99,129.37 -71.45,0 -133.56,-57.92 -138.75,-129.37 -5.18,-71.45 48.54,-129.37 119.99,-129.37z"/>
    <path class="fil15" d="M3885.33 8535.84c187.96,0 351.39,152.38 365.02,340.34 13.63,187.95 -127.7,340.33 -315.65,340.33 -187.96,0 -351.39,-152.38 -365.02,-340.33 -13.63,-187.96 127.69,-340.34 315.65,-340.34z"/>
    <polygon class="fil22" points="3716.93,9154.96 3659.66,9368.24 3888.05,9406.46 3931.72,9566.73 3988.8,9180.85 "/>
    <path class="fil23" d="M3827.21 9396.29l60.84 10.17 20.87 76.61c10.48,7.86 21.2,14.78 32.11,20.73l47.77 -322.95 -260.55 -24.81c19.19,93.21 54.21,176.28 98.96,240.25z"/>
    <path class="fil22" d="M4198.27 8767.6c15.64,51.09 26.44,106.39 31.13,164.14 21.01,258.78 -88.28,468.55 -244.07,468.55 -155.81,0 -299.13,-209.77 -320.13,-468.55 -3.92,-48.33 -3.29,-94.95 1.32,-138.82l267.2 -48.37 264.55 23.05z"/>
    <path class="fil15" d="M3710.3 9137.01l53.25 -51.94c172.45,-11.21 274.86,-77.82 346.35,-234.86 35.88,101.66 76.5,156.1 121.88,162.44l12.24 -115.19 -52.27 -176.62 -409.26 -21.87 -165.47 81.37 13.5 186.17 79.78 170.5z"/>
    <path class="fil22" d="M3760.3 8996.42c37.49,0 71.03,43.33 74.91,96.76 3.87,53.44 -23.38,96.76 -60.87,96.76 -37.5,0 -71.04,-43.32 -74.91,-96.76 -3.88,-53.43 23.38,-96.76 60.87,-96.76z"/>
    <path class="fil3" d="M3946.29 9284.59l182.8 0c-47.16,54.47 -129.33,66.13 -182.8,0z"/>
    <polygon class="fil15" points="3818.75,9641.79 3830.85,9574.92 3924.55,9592.96 4001.31,9566.73 4029.55,9636.42 4000.05,9613.13 3980.35,9681.36 4211.12,10228.58 4225.31,10424.21 4132.15,10605.9 4005.8,10436.01 3993.63,10225.85 3932.74,9683.75 3880.97,9614.16 "/>
    <polygon class="fil22" points="3313.92,10266.38 3463.86,10667.37 3675.39,10554.32 3570.68,10219.39 "/>
    <path class="fil18" d="M3332.88 10317.11l95.24 254.7c9.03,-42.62 32.56,-80.61 67.79,-107.08 39.82,-29.9 90.34,-41.85 140.65,-34.64l-54.28 -173.58 -249.4 60.6z"/>
    <path class="fil22" d="M3463.86 10667.37c233.13,230.38 701.98,35.74 860.48,-147.63l0 -38.5 -671.72 40.12 -188.76 146.01z"/>
    <path class="fil3" d="M3192.74 10084.98l132.71 320.7 298.51 -54.79 -101.51 -592.17 -277.82 -126.05 -26.85 44.45c-74.86,123.85 -83.6,266.32 -25.04,407.86z"/>
    <path class="fil3" d="M4780.38 13088.48l-52.55 30.34c-120.04,74.03 -63.45,292.36 -46.59,550.89 4.43,67.92 14.82,167.94 64.34,210.1 96.39,82.08 348.92,38.69 274.01,-266.33 -22.42,-91.26 -50.51,-180.79 -84.08,-267.97 -25.21,-65.46 -44.69,-133.31 -58.2,-202.67l-96.93 -54.36z"/>
    <path class="fil15" d="M4513.06 11788.43l-73.47 246.58c-35.4,118.85 -36.6,231.01 -3.73,350.71l247.93 903.01 210.53 -15.56 131.43 -1110.5c11.49,-97.09 12.88,-181.06 4.6,-278.52l-18.48 -217.56c-6.4,-75.27 -38.31,-137.44 -94.05,-183.18l-21.19 -17.39c-54.94,-45.09 -128.31,-45.07 -183.22,0.06l-67.62 55.58c-16.24,13.33 -30.56,27.65 -43.13,43.14l0 -0.01 -247.38 223.72 157.78 -0.08z"/>
    <path class="fil3" d="M5582.48 13178.03l-52.92 62.03c-17.9,23.41 -24.77,53.43 -18.84,82.3 5.93,28.86 24.08,53.74 49.76,68.2 67.25,37.86 194.24,102.44 289.63,182.32 72.9,61.06 173.4,77.59 264.67,50.94 23.73,-6.93 42.37,-25.4 49.52,-49.06 7.15,-23.66 1.87,-49.36 -14.04,-68.28 -54.44,-64.71 -56.91,-60.96 -120.67,-116.52l-447.11 -211.93z"/>
    <path class="fil22" d="M4894.32 13273.17l28.47 257.46c-2.56,119.75 -113.24,93.31 -148.25,0l-90.75 -241.9c-4.89,-41.98 12.14,-83.44 44.24,-107.71 32.1,-24.27 74.01,-27.35 108.87,-8.04 34.86,19.32 52.78,58.22 57.42,100.19z"/>
    <path class="fil22" d="M5767.44 13087.05l262.15 302.91c-60.66,25.81 -184.2,27.68 -276.32,-39.13 -77.54,-56.26 -125.16,-182.41 -170.79,-172.8l45.31 -60.35c32.55,-43.36 106.49,-68.94 139.65,-30.63z"/>
    <g>
     <polygon class="fil4" points="5331.12,10096.72 5311.76,10296.09 4766.05,10975.81 4789.61,10778.37 "/>
     <polygon class="fil4" points="5244.59,10316.11 4560.9,10167.68 4059.8,10831.84 4703.08,10997.76 "/>
     <polygon class="fil17" points="5244.59,10316.11 5311.76,10296.09 4766.05,10975.81 4703.08,10997.76 "/>
     <path class="fil3" d="M4605.61 10177.39l41.34 -25.08 77.65 15.37c52.06,10.31 105.65,10.31 157.71,0 104.44,-20.67 212.19,0.18 300.83,57.04l27.27 -47.17c2.97,-11.96 9.1,-23.14 18.03,-32.22 9.91,-10.1 19.68,-20.33 29.3,-30.7l54.21 6.22 -18.89 180.82 -48.47 14.44 -638.98 -138.72z"/>
    </g>
    <path class="fil22" d="M4530.66 10581.23c-23.59,38.13 -69.18,56.56 -112.65,45.54l-192.7 -59.14 68.78 -84.58 21.29 -23.95c18.1,-20.35 41.19,-35.63 66.99,-44.32l223.31 1.75c11.03,0.09 21.01,6.54 25.61,16.57 4.6,10.02 2.97,21.8 -4.16,30.21 -7.12,8.42 -18.47,11.94 -29.12,9.05l-67.35 108.87z"/>
   </g>
   <g>
    <polygon class="fil25" points="10388.96,8749.64 10637.58,9295.8 10353.11,9428.39 10128.37,8901.4 "/>
    <polygon class="fil16" points="9427.75,13947.52 9270.9,14153.9 9303.12,14699.17 9743.49,14699.17 9776.12,14577.36 9686.04,14550.52 9440.3,14081.22 "/>
    <path class="fil16" d="M9626.13 6769.32c181.65,0 328.91,147.26 328.91,328.91 0,181.64 -147.26,328.9 -328.91,328.9 -181.64,0 -328.9,-147.26 -328.9,-328.9 0,-181.65 147.26,-328.91 328.9,-328.91z"/>
    <path class="fil21" d="M9670.33 6897.1c83.29,0 150.81,67.52 150.81,150.81 0,83.3 -67.52,150.82 -150.81,150.82 -83.29,0 -150.81,-67.52 -150.81,-150.82 0,-83.29 67.52,-150.81 150.81,-150.81z"/>
    <path class="fil16" d="M9916.26 6832.26c219.12,0 396.75,177.63 396.75,396.74 0,219.12 -177.63,396.75 -396.75,396.75 -219.11,0 -396.74,-177.63 -396.74,-396.75 0,-219.11 177.63,-396.74 396.74,-396.74z"/>
    <polygon class="fil16" points="9109.85,9825.73 8798.31,10538.26 9128.02,12220.55 8962.05,12677.5 9361.51,13866.92 9573.33,13791.67 9477.53,12602.52 9518.5,12288.6 9605.82,10963.58 9718.13,11115.1 10154.85,12208.51 9934.19,12756.69 10082.39,13866.92 10303.78,13792.53 10488.98,12500.1 10586.06,12214.21 10287.44,10264.9 10314.27,10053.95 "/>
    <polygon class="fil26" points="10225.35,8121.42 10559.94,8759 9953.69,9050.04 9707.15,8333.45 "/>
    <polygon class="fil15" points="9605.82,10963.58 9718.13,11115.1 10154.85,12208.51 9934.19,12756.69 10082.39,13866.92 10306.3,13791.67 10488.98,12500.1 10586.06,12214.21 10287.44,10264.9 10314.27,10053.95 10195.9,10031.52 10132.03,10115.11 9922.49,10377.87 9715,10712.27 9631.74,10751.86 "/>
    <path class="fil4" d="M10334.61 10006.25l-114.81 -614.99 80.5 -749.14 -85.37 -593.08 -425.52 -146.77 -889.38 303.72 0.4 101.39 231.77 467.6 93.61 -128.57 -57.23 190.6 56.33 96.03c133.84,228.17 118.12,499.26 -41.18,710.44l-234.93 311.42 -63.05 383.38 85.63 -195.85 28.36 235.44c295.55,-112.26 604.2,-102.35 922.75,0l209.54 -262.76 80.48 177.48 122.1 -286.34z"/>
    <polygon class="fil4" points="9380.67,8070.63 9492.77,7774.9 10001.53,7774.9 10070.52,8076.38 "/>
    <polygon class="fil4" points="8900.43,8307.38 8769.51,8988.41 9495.25,9117.57 9470.46,8488.89 "/>
    <polygon class="fil22" points="9667.6,7553.99 9582.81,7802.63 9845.82,7847.19 9883.18,8034.02 9982.35,7584.17 "/>
    <path class="fil25" d="M9775.76 7835.32l70.06 11.87 17.86 89.31c11.55,9.16 23.46,17.23 35.68,24.16l82.99 -376.49 -301.64 -28.92c14.49,108.66 48.29,205.5 95.05,280.07z"/>
    <path class="fil22" d="M10261.48 7102.43c13.92,59.55 21.83,124.02 22.41,191.34 2.61,301.68 -142.53,546.23 -324.14,546.23 -181.63,0 -330.98,-244.55 -333.57,-546.23 -0.49,-56.34 4.18,-110.69 13.27,-161.82l315.58 -56.39 306.45 26.87z"/>
    <path class="fil4" d="M9662.67 8607.38l519.64 0c121.74,0 221.33,99.59 221.33,221.33l0 0c0,121.74 -99.59,221.33 -221.33,221.33l-519.64 0c-121.74,0 -221.33,-99.59 -221.33,-221.33l0 0c0,-121.74 99.59,-221.33 221.33,-221.33z"/>
    <polygon class="fil4" points="10258.67,8406.04 10388.96,8749.64 10128.37,8791.36 "/>
    <polygon class="fil22" points="9573.33,13791.67 9578.87,14400.91 9499.86,14429.8 9370.98,14131.42 9417.17,14023.61 9361.51,13866.92 "/>
    <path class="fil16" d="M9661.4 7533.07l66.46 -60.54c201.98,-13.07 327,-90.73 423.62,-273.8 33.23,118.51 75.98,181.98 128.35,189.36l24 -134.27 -46 -205.91 -475.25 -25.48 -199.77 94.85 0 217.03 78.59 198.76z"/>
    <path class="fil22" d="M9731.57 7369.18c43.7,0 79.14,50.51 79.14,112.8 0,62.29 -35.44,112.8 -79.14,112.8 -43.71,0 -79.15,-50.51 -79.15,-112.8 0,-62.29 35.44,-112.8 79.15,-112.8z"/>
    <path class="fil3" d="M9924.02 7705.11l213.1 0c-59.58,63.5 -156.36,77.1 -213.1,0z"/>
    <polygon class="fil15" points="10143.68,13947.52 9945.67,14153.9 9956.38,14699.17 10330.63,14699.17 10339.96,14563.95 10297.06,14550.52 10126.74,14081.22 "/>
    <polygon class="fil22" points="10306.3,13791.67 10213.93,14400.91 10095.94,14429.8 10049.35,14131.42 10112.88,14023.61 10082.39,13866.92 "/>
    <polygon class="fil15" points="10230.15,9026.49 10049.86,8983.51 9705.68,9073.46 "/>
    <polygon class="fil3" points="9759.11,8082.9 9778.87,7994.87 9886.58,8018.62 9978.27,7984.09 10005.3,8075.84 9972.89,8045.17 9944.15,8134.99 10166.91,8855.39 10166.91,9112.94 10042.95,9352.13 9910.02,9128.47 9913.6,8851.8 9888.45,8138.14 9833.98,8046.53 "/>
    <g>
     <polygon class="fil4" points="11287.7,8901.4 11268.34,9100.77 10722.63,9780.5 10746.19,9583.06 "/>
     <polygon class="fil17" points="11201.17,9120.8 10517.48,8972.37 10016.39,9636.52 10659.66,9802.45 "/>
     <polygon class="fil17" points="11201.17,9120.8 11268.34,9100.77 10722.63,9780.5 10659.66,9802.45 "/>
     <path class="fil3" d="M10562.19 8982.08l41.34 -25.08 77.65 15.37c52.06,10.31 105.65,10.31 157.71,0 104.44,-20.68 212.19,0.18 300.83,57.03l27.27 -47.16c2.97,-11.97 9.1,-23.14 18.03,-32.22 9.91,-10.1 19.68,-20.33 29.3,-30.7l54.21 6.22 -18.88 180.81 -48.48 14.45 -638.98 -138.72z"/>
    </g>
    <g>
     <path class="fil22" d="M10054.18 9267.47l253.7 -123.75 58.82 198.57c-168.48,90.27 -289.7,58.14 -312.52,-74.82z"/>
     <path class="fil22" d="M10307.88 9143.72l171.65 -46 172.52 92.97c-6.17,52.17 -50.17,48.25 -129.65,-8.3l41.18 70.28 -1.78 64.1 -34.83 28.09 19.11 106.72c-35.17,8.03 -52.38,-20.25 -63.48,-70.45l-45.75 32.28c-17.29,-14.37 -15.44,-31.26 -1.83,-49.64l-21.37 9.63c-11.79,-12.43 -11.96,-29.36 -2.67,-38.84l-49.05 10.27 -61.69 -138.53 7.64 -62.58z"/>
    </g>
    <path class="fil22" d="M8888.99 8944.66l100.46 520.21c361.45,71.61 816.32,40.35 1179.43,-126.99l27.94 -96.23 -945.52 -39.42 2.89 -213.59 -365.2 -43.98z"/>
   </g>
  </g>
 </g>
</svg>
